<svg xmlns="http://www.w3.org/2000/svg" width="238.419" height="36" viewBox="0 0 238.419 36"><g transform="translate(-127.559 -226.115)"><path d="M141.479,253.858h7.039a.761.761,0,0,0,.76-.761V240.876a2.111,2.111,0,0,1,2.048-2.335c1.065,0,1.925.861,1.925,2.335V253.1a.761.761,0,0,0,.761.761h7.038a.76.76,0,0,0,.76-.761V240.876a2.111,2.111,0,0,1,2.048-2.335c1.106,0,1.925.861,1.925,2.335V253.1a.761.761,0,0,0,.761.761h7.079a.761.761,0,0,0,.761-.761V238.214c0-4.424-2.5-7.25-6.716-7.25a7.916,7.916,0,0,0-6.122,2.839.563.563,0,0,1-.9-.087,6,6,0,0,0-5.393-2.752,6.912,6.912,0,0,0-5,2.188.569.569,0,0,1-.981-.391v-.5a.761.761,0,0,0-.76-.761h-7.039a.761.761,0,0,0-.761.761V253.1A.761.761,0,0,0,141.479,253.858Z" transform="translate(5.287 1.948)" fill="#fff" fill-rule="evenodd"/><path d="M173.913,254.238a6.973,6.973,0,0,0,5.082-2.208.569.569,0,0,1,.98.394v.52a.761.761,0,0,0,.76.761h7.081a.761.761,0,0,0,.76-.761V232.105a.761.761,0,0,0-.76-.761h-7.081a.761.761,0,0,0-.76.761v12.14a2.191,2.191,0,0,1-2.089,2.417c-1.147,0-2.007-.9-2.007-2.417v-12.14a.76.76,0,0,0-.76-.761h-7.079a.761.761,0,0,0-.761.761V246.99C167.278,251.412,169.735,254.238,173.913,254.238Z" transform="translate(15.96 2.101)" fill="#fff" fill-rule="evenodd"/><path d="M194.309,254.391c5.611,0,8.97-2.948,8.97-7.7,0-4.641-3.81-6.113-7.617-7.372-2.007-.655-2.581-.941-2.581-1.433,0-.709.687-.819,1.27-.819a12.874,12.874,0,0,1,5.236,1.525.756.756,0,0,0,1.014-.339l2.15-4.271a.755.755,0,0,0-.3-1,17.427,17.427,0,0,0-8.307-2.016c-5.366,0-8.93,2.868-8.93,7.577,0,4.828,3.769,6.211,7.741,7.455,2.048.655,2.457.983,2.457,1.475,0,.708-.7.817-1.269.817a12.91,12.91,0,0,1-6.3-1.982.765.765,0,0,0-1.077.3l-2.171,4.218a.763.763,0,0,0,.271,1A18.114,18.114,0,0,0,194.309,254.391Z" transform="translate(22.884 1.948)" fill="#fff" fill-rule="evenodd"/><path d="M219.636,254.42a10.233,10.233,0,0,0,8.484-4.032.755.755,0,0,0-.1-1.015L224,245.742a.77.77,0,0,0-1.086.067,3.254,3.254,0,0,1-2.539,1.2c-1.761,0-3.071-1.639-3.071-4.382,0-1.939.814-4.259,3.113-4.259a3.035,3.035,0,0,1,2.38,1.21.768.768,0,0,0,1.1.084l4.1-3.678a.77.77,0,0,0,.1-1.026,9.735,9.735,0,0,0-8.128-3.963c-6.511,0-11.017,5.04-11.017,11.592C208.947,249.076,212.75,254.42,219.636,254.42Z" transform="translate(32.703 1.96)" fill="#fff" fill-rule="evenodd"/><rect width="2.949" height="29.57" rx="0.271" transform="translate(286.708 226.237)" fill="#fff"/><path d="M252.587,253.946a7.307,7.307,0,0,0,5.846-2.649.378.378,0,0,1,.665.248v1.57a.38.38,0,0,0,.381.38h2.148a.38.38,0,0,0,.38-.38v-13.34A7.92,7.92,0,0,0,259.958,234a8.127,8.127,0,0,0-5.98-2.131,14.408,14.408,0,0,0-6.4,1.567.382.382,0,0,0-.191.484l.662,1.7a.378.378,0,0,0,.523.2,11.415,11.415,0,0,1,5.209-1.243,5.389,5.389,0,0,1,5.313,5.39v.543c0,.367-.243.545-.488.474a17.224,17.224,0,0,0-5-.714c-10.839,0-9.873,13.679-1.022,13.679Zm.653-2.457h0c-5.855,0-6.581-8.93.737-8.93a15.478,15.478,0,0,1,4.346.594,1.138,1.138,0,0,1,.816,1.1v1.832A5.55,5.55,0,0,1,253.24,251.488Z" transform="translate(47.476 2.312)" fill="#fff" fill-rule="evenodd"/><path d="M267.705,248.608l-5.921-16.283a.38.38,0,0,0-.357-.25h-2.375a.38.38,0,0,0-.355.516l7.575,19.735a2.859,2.859,0,0,1-.1,2.277c-.9,1.822-1.832,2.455-3.171,2.455a5.461,5.461,0,0,1-2.421-.587.376.376,0,0,0-.513.215l-.635,1.731a.387.387,0,0,0,.188.478,7.986,7.986,0,0,0,3.544.827c2.868,0,4.71-1.515,6.227-5.939l7.4-21.2a.379.379,0,0,0-.359-.5h-2.342a.378.378,0,0,0-.36.262L268.423,248.6A.379.379,0,0,1,267.705,248.608Z" transform="translate(52.683 2.395)" fill="#ea1400" fill-rule="evenodd"/><path d="M281.781,253.981a8.7,8.7,0,0,0,6.65-2.942.382.382,0,0,0,0-.512l-1.228-1.4a.38.38,0,0,0-.551-.018,6.624,6.624,0,0,1-4.712,2.173c-8.8,0-8.637-16.792-.123-16.792a6.627,6.627,0,0,1,4.7,2.124.381.381,0,0,0,.561-.035l1.284-1.612a.383.383,0,0,0-.032-.514,8.935,8.935,0,0,0-6.468-2.665C269.32,231.783,269.086,253.981,281.781,253.981Z" transform="translate(58.182 2.277)" fill="#fff" fill-rule="evenodd"/><path d="M294.713,253.981a9.559,9.559,0,0,0,7.072-2.938.383.383,0,0,0,.015-.529l-1.176-1.319a.379.379,0,0,0-.544-.018,7.369,7.369,0,0,1-5.244,2.183c-3.258,0-6.091-2.466-6.558-6.91a.386.386,0,0,1,.383-.422H301.4a1.222,1.222,0,0,0,1.221-1.22c0-5.341-2.426-11.025-8.561-11.025-11.571,0-12.145,22.2.656,22.2Zm-6.056-12.246h0a.383.383,0,0,1-.381-.416c.4-4.228,2.728-6.956,5.781-6.956,3.363,0,5.274,3.1,5.585,6.961a.385.385,0,0,1-.384.411Z" transform="translate(63.361 2.277)" fill="#fff" fill-rule="evenodd"/><path d="M130.384,230.049l18.832,11.642a1.762,1.762,0,0,1,.573,2.424,1.741,1.741,0,0,1-.6.586L130.25,256.412a1.76,1.76,0,0,1-2.684-1.5l-.007-23.448a1.768,1.768,0,0,1,2.825-1.416Z" transform="translate(0 1.44)" fill="#ea1400" fill-rule="evenodd"/><path d="M200.97,230.5h7.325a.761.761,0,0,0,.761-.761v-2.861a.761.761,0,0,0-.761-.76H200.97a.761.761,0,0,0-.761.76v2.861a.761.761,0,0,0,.761.761Zm.122,25.31h7.038a.761.761,0,0,0,.761-.761V234.206a.761.761,0,0,0-.761-.761h-7.038a.76.76,0,0,0-.76.761v20.839A.76.76,0,0,0,201.092,255.807Z" transform="translate(29.192 0)" fill="#fff" fill-rule="evenodd"/><path d="M225.8,259.674H228a.381.381,0,0,0,.38-.381v-8.475a.378.378,0,0,1,.68-.231,7.505,7.505,0,0,0,6.242,3.353c6.1,0,8.519-6.057,8.519-11.3,0-7.086-4.179-10.853-8.519-10.853a7.493,7.493,0,0,0-6.239,3.461.38.38,0,0,1-.683-.23v-2.442a.379.379,0,0,0-.38-.38h-2.19a.379.379,0,0,0-.38.38V259.3a.381.381,0,0,0,.37.372Zm8.928-8.4c-4.273,0-6.472-4.41-6.472-8.192v-.409c0-5,3.112-8.231,6.472-8.231,4.526,0,6.06,4.849,6.06,8.6C240.785,248.288,238.083,251.278,234.725,251.278Z" transform="translate(39.325 2.277)" fill="#fff" fill-rule="evenodd"/></g></svg>